<svg width="201" height="74" viewBox="0 0 201 74" fill="none" xmlns="http://www.w3.org/2000/svg">
<path d="M199.617 32.797C199.317 32.2511 198.837 31.7659 198.238 31.5232C197.698 31.2806 197.218 31.0986 196.798 30.9773C196.318 30.9167 195.778 30.9167 195.238 31.0986C194.878 31.1593 194.578 31.4019 194.218 31.7052C193.858 32.0691 193.618 32.3724 193.259 32.8577C193.139 33.161 192.899 33.4036 192.779 33.7069C191.999 34.92 191.459 36.4365 190.799 37.8316C190.259 38.9841 189.719 40.1972 189.119 41.471L186 48.1433C184.44 44.7465 182.761 41.0464 181.261 37.8316C180.541 36.0119 179.821 34.1315 178.502 32.6757C177.182 31.0986 174.003 30.4921 172.683 32.979C171.483 34.8594 172.503 36.9217 173.403 38.5595C175.982 43.3514 178.502 49.5385 180.601 54.6337C180.901 55.3616 181.321 56.3321 181.741 57.2419L177.362 66.8258C177.242 66.8258 177.182 67.0078 177.062 67.311C176.942 67.5537 176.882 67.9783 176.702 68.4029C176.642 68.8275 176.582 69.2521 176.522 69.7373C176.522 70.2226 176.582 70.7079 176.762 71.1325C177.002 71.6177 177.362 72.0423 177.902 72.3456C178.742 73.0735 179.701 73.3768 180.721 73.3161C181.921 73.2555 183.121 72.103 183.661 71.1325C183.84 70.7079 184.02 70.4046 184.26 69.98C185.34 67.9783 186.24 65.9766 187.26 63.8536L190.139 57.6059C190.499 56.9993 190.739 56.3321 191.039 55.7255C192.119 53.3599 193.319 50.9336 194.578 48.3253C195.838 45.6564 196.858 43.4121 197.938 40.9251L198.058 40.6218C198.418 39.8939 199.317 37.8316 199.617 37.043C199.977 36.2545 200.097 35.466 200.097 34.6168C200.157 33.9495 199.977 33.343 199.617 32.797Z" fill="#363636"/>
<path d="M143.355 47.0021C143.355 49.6636 143.355 51.7807 143.599 54.4423C143.721 56.1965 143.904 58.6766 145.673 59.7049C147.747 60.7937 149.455 59.9468 150.066 58.0112C150.798 56.136 150.615 52.8696 150.615 50.208C150.554 47.607 150.737 46.2762 150.676 44.2195C150.615 41.4975 152.872 39.6223 155.495 39.3199C158.911 39.0174 161.047 41.1346 161.047 44.8849C160.986 46.5182 161.108 48.5143 161.108 50.0265C161.169 51.9017 161.169 54.9262 161.535 56.7409C161.962 58.979 162.694 60.4912 166.11 59.7654C168.489 59.2815 168.062 55.2891 168.184 53.2325C168.367 50.6919 168.367 48.0909 168.184 45.5503C168.001 42.0419 168.062 38.473 165.805 35.63C163.792 33.2104 160.498 31.8192 157.386 31.8192C156.044 31.8797 152.323 32.6056 150.737 35.4486C150.615 33.2709 150.676 31.0933 147.686 30.6094C146.222 30.2465 144.514 30.9723 143.843 32.4846C143.111 34.1783 143.355 36.4164 143.355 38.2916V47.0021Z" fill="#363636"/>
<path d="M133.715 51.6379C131.014 52.4304 128.558 53.2229 125.796 53.04C122.788 52.7962 119.166 51.516 119.657 48.224C124.384 48.3459 127.146 48.5288 131.075 48.346C135.557 48.1631 137.276 48.1021 138.319 45.1759C138.933 43.408 138.626 40.36 138.012 38.8969C136.846 35.9707 134.513 33.898 131.751 32.6788C127.637 30.8499 122.604 30.9109 118.982 32.9836C115.974 34.7515 113.702 37.6167 112.781 42.3107C111.983 46.1513 112.29 50.9673 114.377 54.5031C116.649 58.0998 121.069 59.5629 125.489 59.7458C128.742 59.8677 131.996 59.2581 134.329 58.2218C135.925 57.5512 138.135 56.0271 138.135 54.0154C138.135 51.2721 135.618 51.0892 133.715 51.6379ZM131.075 39.8113C131.873 40.6648 132.18 41.3353 132.242 42.4936H120.209C119.534 42.4936 121.253 39.8723 121.499 39.6284C122.358 38.653 123.217 38.1044 124.507 37.7996C125.796 37.4338 127.331 37.3119 128.62 37.8605C129.541 38.2873 130.339 38.9578 131.075 39.8113Z" fill="#363636"/>
<path d="M107.631 45.321C107.753 41.1224 107.874 35.3418 106.963 32.7252C106.052 29.8653 101.009 30.0479 100.22 32.9078C99.5514 35.0375 99.9159 41.305 99.9159 45.1385C99.9159 49.5805 99.4299 51.7711 97.6074 52.3187C89.71 54.631 90.439 46.1729 90.196 40.6356C90.0745 38.7493 90.196 36.3154 89.953 34.429C89.5278 30.8998 87.1586 29.7436 84.7286 31.0215C82.5416 32.1776 82.9061 35.7069 82.8454 37.8366C82.6631 40.5748 82.6631 43.313 82.8454 46.1121C83.0276 50.3715 83.6351 56.2131 87.5838 58.5862C91.4718 61.0201 97.6074 61.3244 102.164 59.1338C107.388 56.6998 107.388 50.6149 107.631 45.321Z" fill="#363636"/>
<path d="M77.1501 45.9877C76.9549 39.6232 77.2152 34.3741 70.7724 31.0935C67.6486 29.5187 63.2883 29.5187 59.709 30.7654V29.65C59.709 26.6974 59.709 23.7448 59.6439 20.989V20.661C59.5788 19.808 59.5788 17.0522 59.4487 16.1993C59.4487 15.3463 59.2534 14.6245 58.928 13.8372C58.6677 13.181 58.2122 12.7874 57.6915 12.4593C57.1058 12.0656 56.5201 11.8688 55.8042 11.8688C55.2836 11.8688 54.763 11.9344 54.3074 12C53.7868 12.0656 53.3963 12.3937 52.9408 12.7874C52.6805 12.9842 52.4201 13.3779 52.29 13.7716C52.1598 14.2309 52.0297 14.6901 51.8995 15.2151C51.8344 15.74 51.7693 16.1993 51.7693 16.7242V54.4518C51.7693 56.9451 53.0058 58.9135 55.609 58.9135C59.7741 58.8479 59.6439 54.7799 59.6439 51.6304V46.8406L59.709 44.2817C60.1645 40.4105 59.774 37.4579 65.5661 37.786C70.0565 37.9172 69.666 44.8723 69.7962 48.7434C69.9264 51.2367 69.0153 58.3886 72.9851 58.8479C76.8898 59.3072 76.9549 56.0265 77.1501 51.3024C77.2152 49.7276 77.2152 47.6936 77.1501 45.9877Z" fill="#363636"/>
<path d="M43.971 36.4507C42.5299 31.8734 38.8003 28.5676 33.8839 26.618C29.0523 24.7531 23.7968 24.8379 18.7957 24.1598C15.4898 23.7359 11.5906 22.5492 11.3363 18.9043C10.9125 13.8184 14.8965 11.1907 19.8129 10.5973C23.7121 10.1735 28.798 10.8516 31.8495 13.1403C34.223 14.8356 37.1897 18.4805 40.7499 16.1918C45.0729 13.5641 41.1737 7.80008 38.2917 5.51141C34.3077 2.12081 26.8484 0.510267 20.0672 0.764559C13.9641 1.01886 8.87814 2.29033 5.23323 5.51141C-2.22611 12.6317 -1.71752 27.2961 8.62384 31.6191C13.7945 33.9078 19.7281 33.484 25.0683 34.5859C29.8999 35.7726 33.121 37.2984 33.121 42.6386C33.121 49.1655 24.5597 53.0647 17.1004 50.5218C14.4726 49.2503 11.9297 47.2159 10.743 44.8425C9.38673 41.9605 5.91135 41.5367 3.53792 42.0452C-0.0222165 42.8929 -0.530808 47.3007 0.740671 49.8436C2.52074 53.4886 5.0637 56.4553 8.70861 58.4897C20.2367 64.8471 40.4108 60.4393 44.0557 47.7245C45.0729 44.673 45.0729 39.6718 43.971 36.4507Z" fill="#FFCD1C"/>
</svg>
